<svg width="358" height="50" viewBox="0 0 358 50" fill="none" xmlns="http://www.w3.org/2000/svg">
<rect width="358" height="50" rx="2" fill="white"/>
<path d="M154.2 32H158.931C162.024 32 163.303 30.4915 163.303 28.5227C163.303 26.4517 161.871 25.3267 160.669 25.25V25.1222C161.794 24.8153 162.791 24.0739 162.791 22.3864C162.791 20.4688 161.513 18.9091 158.777 18.9091H154.2V32ZM155.786 30.5938V26.0426H159.007C160.72 26.0426 161.794 27.1932 161.794 28.5227C161.794 29.6733 161.002 30.5938 158.931 30.5938H155.786ZM155.786 24.6619V20.3153H158.777C160.516 20.3153 161.283 21.2358 161.283 22.3864C161.283 23.767 160.158 24.6619 158.726 24.6619H155.786ZM169.692 32.2045C172.351 32.2045 174.14 30.1847 174.14 27.142C174.14 24.0739 172.351 22.054 169.692 22.054C167.032 22.054 165.243 24.0739 165.243 27.142C165.243 30.1847 167.032 32.2045 169.692 32.2045ZM169.692 30.8494C167.672 30.8494 166.751 29.1108 166.751 27.142C166.751 25.1733 167.672 23.4091 169.692 23.4091C171.711 23.4091 172.632 25.1733 172.632 27.142C172.632 29.1108 171.711 30.8494 169.692 30.8494ZM177.952 29.7756V22.1818H176.443V32H178.207L182.912 24.4062V32H184.42V22.1818H182.682L177.952 29.7756ZM181.685 18.9091C181.685 19.5739 181.327 20.1619 180.432 20.1619C179.537 20.1619 179.205 19.5739 179.205 18.9091H177.798C177.798 20.2898 178.821 21.2614 180.432 21.2614C182.068 21.2614 183.091 20.2898 183.091 18.9091H181.685ZM185.847 23.5881H189.095V32H190.603V23.5881H193.825V22.1818H185.847V23.5881ZM197.534 29.7756V22.1818H196.025V32H197.789L202.494 24.4062V32H204.002V22.1818H202.264L197.534 29.7756Z" fill="black"/>
</svg>
