<svg width="358" height="50" viewBox="0 0 358 50" fill="none" xmlns="http://www.w3.org/2000/svg">
<rect width="358" height="50" rx="2" fill="white"/>
<path d="M92.7042 32.179C95.2418 32.179 97.1275 30.5874 97.1275 28.446C97.1275 26.7841 96.1431 25.576 94.494 25.3011V25.1989C95.8171 24.7962 96.6417 23.7095 96.6417 22.233C96.6417 20.3793 95.1779 18.7301 92.7553 18.7301C90.4925 18.7301 88.6133 20.1236 88.5366 22.1818H90.0707C90.1282 20.8778 91.3683 20.1108 92.7298 20.1108C94.1744 20.1108 95.1076 20.9865 95.1076 22.3097C95.1076 23.6903 94.0273 24.5852 92.4741 24.5852H91.4258V25.9915H92.4741C94.462 25.9915 95.5678 27.0014 95.5678 28.446C95.5678 29.8331 94.3597 30.7727 92.6786 30.7727C91.1637 30.7727 89.962 29.9929 89.8661 28.7273H88.2553C88.3512 30.7855 90.1665 32.179 92.7042 32.179ZM102.657 32.2301C104.37 32.2301 105.265 31.3097 105.571 30.6705H105.648V32H107.157V25.5312C107.157 22.4119 104.779 22.054 103.526 22.054C102.043 22.054 100.355 22.5653 99.5884 24.3551L101.02 24.8665C101.353 24.1506 102.139 23.3835 103.577 23.3835C104.964 23.3835 105.648 24.1186 105.648 25.3778V25.429C105.648 26.1577 104.907 26.0938 103.117 26.3239C101.295 26.5604 99.3072 26.9631 99.3072 29.2131C99.3072 31.1307 100.79 32.2301 102.657 32.2301ZM102.887 30.875C101.685 30.875 100.816 30.3381 100.816 29.2898C100.816 28.1392 101.864 27.7812 103.04 27.6278C103.679 27.5511 105.392 27.3722 105.648 27.0653V28.446C105.648 29.6733 104.676 30.875 102.887 30.875ZM109.91 35.6818H111.419V30.4915H111.546C111.879 31.0284 112.518 32.2045 114.41 32.2045C116.865 32.2045 118.578 30.2358 118.578 27.1165C118.578 24.0227 116.865 22.054 114.384 22.054C112.467 22.054 111.879 23.2301 111.546 23.7415H111.367V22.1818H109.91V35.6818ZM111.393 27.0909C111.393 24.892 112.365 23.4091 114.205 23.4091C116.123 23.4091 117.069 25.0199 117.069 27.0909C117.069 29.1875 116.097 30.8494 114.205 30.8494C112.39 30.8494 111.393 29.3153 111.393 27.0909ZM124.995 32.2045C126.99 32.2045 128.447 31.2074 128.907 29.7244L127.45 29.3153C127.066 30.3381 126.178 30.8494 124.995 30.8494C123.225 30.8494 122.004 29.7053 121.933 27.6023H129.061V26.9631C129.061 23.3068 126.887 22.054 124.842 22.054C122.183 22.054 120.419 24.1506 120.419 27.1676C120.419 30.1847 122.157 32.2045 124.995 32.2045ZM121.933 26.2983C122.036 24.7706 123.116 23.4091 124.842 23.4091C126.478 23.4091 127.526 24.6364 127.526 26.2983H121.933ZM137.415 22.1818H131.355V32H132.864V23.5881H137.415V22.1818ZM141.126 29.7756V22.1818H139.617V32H141.381L146.086 24.4062V32H147.594V22.1818H145.856L141.126 29.7756ZM154.346 32.2045C156.519 32.2045 157.951 30.875 158.207 29.1364H156.698C156.417 30.2102 155.522 30.8494 154.346 30.8494C152.556 30.8494 151.406 29.3665 151.406 27.0909C151.406 24.8665 152.582 23.4091 154.346 23.4091C155.675 23.4091 156.468 24.2273 156.698 25.1222H158.207C157.951 23.2812 156.391 22.054 154.32 22.054C151.661 22.054 149.897 24.1506 149.897 27.142C149.897 30.0824 151.585 32.2045 154.346 32.2045ZM159.638 23.5881H162.886V32H164.394V23.5881H167.616V22.1818H159.638V23.5881ZM169.816 35.6818H171.325V30.4915H171.453C171.785 31.0284 172.424 32.2045 174.316 32.2045C176.771 32.2045 178.484 30.2358 178.484 27.1165C178.484 24.0227 176.771 22.054 174.291 22.054C172.373 22.054 171.785 23.2301 171.453 23.7415H171.274V22.1818H169.816V35.6818ZM171.299 27.0909C171.299 24.892 172.271 23.4091 174.112 23.4091C176.029 23.4091 176.975 25.0199 176.975 27.0909C176.975 29.1875 176.004 30.8494 174.112 30.8494C172.296 30.8494 171.299 29.3153 171.299 27.0909ZM182.294 29.7756V22.1818H180.785V32H182.549L187.254 24.4062V32H188.762V22.1818H187.024L182.294 29.7756ZM191.525 35.6818H193.034V30.4915H193.162C193.494 31.0284 194.133 32.2045 196.025 32.2045C198.48 32.2045 200.193 30.2358 200.193 27.1165C200.193 24.0227 198.48 22.054 196 22.054C194.082 22.054 193.494 23.2301 193.162 23.7415H192.983V22.1818H191.525V35.6818ZM193.008 27.0909C193.008 24.892 193.98 23.4091 195.821 23.4091C197.738 23.4091 198.684 25.0199 198.684 27.0909C198.684 29.1875 197.713 30.8494 195.821 30.8494C194.005 30.8494 193.008 29.3153 193.008 27.0909ZM206.483 32.2045C209.142 32.2045 210.931 30.1847 210.931 27.142C210.931 24.0739 209.142 22.054 206.483 22.054C203.824 22.054 202.034 24.0739 202.034 27.142C202.034 30.1847 203.824 32.2045 206.483 32.2045ZM206.483 30.8494C204.463 30.8494 203.542 29.1108 203.542 27.142C203.542 25.1733 204.463 23.4091 206.483 23.4091C208.502 23.4091 209.423 25.1733 209.423 27.142C209.423 29.1108 208.502 30.8494 206.483 30.8494ZM213.234 32H217.862C219.856 32 221.058 30.875 221.058 29.3665C221.058 27.826 219.888 26.995 218.808 26.8352C219.914 26.6051 220.7 25.9851 220.7 24.7898C220.7 23.2237 219.358 22.1818 217.248 22.1818H213.234V32ZM214.666 30.6193V27.6023H217.862C218.898 27.6023 219.524 28.2223 219.524 29.2386C219.524 30.0952 218.898 30.6193 217.862 30.6193H214.666ZM214.666 26.2983V23.5625H217.248C218.456 23.5625 219.192 24.0675 219.192 24.892C219.192 25.7678 218.456 26.2983 217.248 26.2983H214.666ZM226.231 32.2301C227.944 32.2301 228.839 31.3097 229.146 30.6705H229.222V32H230.731V25.5312C230.731 22.4119 228.353 22.054 227.1 22.054C225.617 22.054 223.93 22.5653 223.163 24.3551L224.594 24.8665C224.927 24.1506 225.713 23.3835 227.151 23.3835C228.538 23.3835 229.222 24.1186 229.222 25.3778V25.429C229.222 26.1577 228.481 26.0938 226.691 26.3239C224.869 26.5604 222.881 26.9631 222.881 29.2131C222.881 31.1307 224.364 32.2301 226.231 32.2301ZM226.461 30.875C225.259 30.875 224.39 30.3381 224.39 29.2898C224.39 28.1392 225.438 27.7812 226.614 27.6278C227.254 27.5511 228.967 27.3722 229.222 27.0653V28.446C229.222 29.6733 228.251 30.875 226.461 30.875ZM232.148 23.5881H235.395V32H236.904V23.5881H240.126V22.1818H232.148V23.5881ZM243.835 25.7358V22.1818H242.326V32H246.442C248.744 32 249.996 30.5938 249.996 28.8295C249.996 27.0398 248.744 25.7358 246.442 25.7358H243.835ZM243.835 27.142H246.442C247.638 27.142 248.488 27.8707 248.488 28.9062C248.488 29.897 247.638 30.5938 246.442 30.5938H243.835V27.142ZM256.281 32.2045C258.455 32.2045 259.887 30.875 260.142 29.1364H258.634C258.352 30.2102 257.458 30.8494 256.281 30.8494C254.492 30.8494 253.341 29.3665 253.341 27.0909C253.341 24.8665 254.517 23.4091 256.281 23.4091C257.611 23.4091 258.404 24.2273 258.634 25.1222H260.142C259.887 23.2812 258.327 22.054 256.256 22.054C253.597 22.054 251.833 24.1506 251.833 27.142C251.833 30.0824 253.52 32.2045 256.281 32.2045ZM268.254 32H269.686V22.1818H265.646C263.53 22.1818 262.245 23.2876 262.245 25.0966C262.245 26.4453 262.923 27.4041 264.105 27.8068L261.708 32H263.345L265.62 28.0114H268.254V32ZM268.254 26.6051H265.467C264.399 26.6051 263.754 26.0362 263.754 25.0966C263.754 24.1442 264.47 23.5625 265.646 23.5625H268.254V26.6051Z" fill="black"/>
</svg>
